<svg width="123" height="32" viewBox="0 0 123 32" fill="none" xmlns="http://www.w3.org/2000/svg">
<path d="M38.0923 31.656C37.751 31.656 37.476 31.5517 37.2675 31.3431C37.0778 31.1535 36.983 30.888 36.983 30.5467V17.1209C37.002 15.6418 37.3528 14.3144 38.0355 13.1387C38.7371 11.944 39.6757 11.0053 40.8515 10.3227C42.0461 9.64 43.383 9.29866 44.8621 9.29866C46.3792 9.29866 47.735 9.64948 48.9297 10.3511C50.1243 11.0338 51.063 11.9724 51.7457 13.1671C52.4473 14.3618 52.7981 15.7176 52.7981 17.2347C52.7981 18.7327 52.4568 20.0791 51.7741 21.2738C51.1104 22.4684 50.2002 23.4166 49.0435 24.1182C47.8867 24.8009 46.5783 25.1422 45.1181 25.1422C43.8476 25.1422 42.6909 24.8767 41.6479 24.3458C40.6239 23.7959 39.799 23.0753 39.1732 22.184V30.5467C39.1732 30.888 39.0689 31.1535 38.8603 31.3431C38.6707 31.5517 38.4147 31.656 38.0923 31.656ZM44.8621 23.1511C45.962 23.1511 46.948 22.8951 47.8203 22.3831C48.6926 21.8711 49.3753 21.1695 49.8683 20.2782C50.3803 19.368 50.6363 18.3535 50.6363 17.2347C50.6363 16.0969 50.3803 15.0824 49.8683 14.1911C49.3753 13.2999 48.6926 12.5982 47.8203 12.0862C46.948 11.5553 45.962 11.2898 44.8621 11.2898C43.7812 11.2898 42.8046 11.5553 41.9323 12.0862C41.06 12.5982 40.3774 13.2999 39.8843 14.1911C39.3913 15.0824 39.1448 16.0969 39.1448 17.2347C39.1448 18.3535 39.3913 19.368 39.8843 20.2782C40.3774 21.1695 41.06 21.8711 41.9323 22.3831C42.8046 22.8951 43.7812 23.1511 44.8621 23.1511ZM70.0079 25C69.6855 25 69.42 24.8957 69.2115 24.6871C69.0029 24.4785 68.8986 24.2225 68.8986 23.9191V16.5236C68.8986 15.3479 68.671 14.3807 68.2159 13.6222C67.7798 12.8637 67.1729 12.2948 66.3955 11.9156C65.6369 11.5363 64.7741 11.3467 63.807 11.3467C62.8778 11.3467 62.034 11.5268 61.2755 11.8871C60.5359 12.2474 59.948 12.7404 59.5119 13.3662C59.0758 13.992 58.8577 14.7031 58.8577 15.4996H57.2932C57.3312 14.3049 57.6535 13.243 58.2603 12.3138C58.8672 11.3656 59.6731 10.6261 60.6781 10.0951C61.6832 9.54518 62.802 9.27022 64.0346 9.27022C65.3809 9.27022 66.5851 9.55466 67.647 10.1236C68.7089 10.6735 69.5433 11.4889 70.1501 12.5698C70.7759 13.6507 71.0888 14.9686 71.0888 16.5236V23.9191C71.0888 24.2225 70.9845 24.4785 70.7759 24.6871C70.5673 24.8957 70.3113 25 70.0079 25ZM57.7768 25C57.4355 25 57.1605 24.9052 56.9519 24.7156C56.7623 24.507 56.6675 24.2415 56.6675 23.9191V10.5502C56.6675 10.2089 56.7623 9.94341 56.9519 9.75378C57.1605 9.54518 57.4355 9.44089 57.7768 9.44089C58.0992 9.44089 58.3552 9.54518 58.5448 9.75378C58.7534 9.94341 58.8577 10.2089 58.8577 10.5502V23.9191C58.8577 24.2415 58.7534 24.507 58.5448 24.7156C58.3552 24.9052 58.0992 25 57.7768 25ZM57.7768 18.6569C57.4355 18.6569 57.1605 18.5526 56.9519 18.344C56.7623 18.1354 56.6675 17.8699 56.6675 17.5476V3.89422C56.6675 3.55289 56.7623 3.2874 56.9519 3.09777C57.1605 2.88918 57.4355 2.78489 57.7768 2.78489C58.0992 2.78489 58.3552 2.88918 58.5448 3.09777C58.7534 3.2874 58.8577 3.55289 58.8577 3.89422V17.5476C58.8577 17.8699 58.7534 18.1354 58.5448 18.344C58.3552 18.5526 58.0992 18.6569 57.7768 18.6569ZM82.5735 25.1422C81.0564 25.1422 79.7006 24.8009 78.5059 24.1182C77.3112 23.4356 76.3726 22.4969 75.6899 21.3022C75.0072 20.1076 74.6659 18.7517 74.6659 17.2347C74.6659 15.6987 75.0072 14.3333 75.6899 13.1387C76.3726 11.944 77.3112 11.0053 78.5059 10.3227C79.7006 9.64 81.0564 9.29866 82.5735 9.29866C84.0905 9.29866 85.4369 9.64 86.6126 10.3227C87.8072 11.0053 88.7459 11.944 89.4286 13.1387C90.1112 14.3333 90.4621 15.6987 90.481 17.2347C90.481 18.7517 90.1302 20.1076 89.4286 21.3022C88.7459 22.4969 87.8072 23.4356 86.6126 24.1182C85.4369 24.8009 84.0905 25.1422 82.5735 25.1422ZM82.5735 23.1511C83.6733 23.1511 84.6594 22.8951 85.5317 22.3831C86.404 21.8711 87.0866 21.1695 87.5797 20.2782C88.0727 19.387 88.3192 18.3724 88.3192 17.2347C88.3192 16.0969 88.0727 15.0824 87.5797 14.1911C87.0866 13.2809 86.404 12.5698 85.5317 12.0578C84.6594 11.5458 83.6733 11.2898 82.5735 11.2898C81.4736 11.2898 80.4875 11.5458 79.6152 12.0578C78.7429 12.5698 78.0508 13.2809 77.5388 14.1911C77.0458 15.0824 76.7992 16.0969 76.7992 17.2347C76.7992 18.3724 77.0458 19.387 77.5388 20.2782C78.0508 21.1695 78.7429 21.8711 79.6152 22.3831C80.4875 22.8951 81.4736 23.1511 82.5735 23.1511ZM100.401 25C99.3962 25 98.4955 24.763 97.699 24.2889C96.9215 23.8148 96.3052 23.1701 95.8501 22.3547C95.395 21.5203 95.1675 20.5721 95.1675 19.5102V5.60089C95.1675 5.27852 95.2623 5.01303 95.4519 4.80444C95.6605 4.59585 95.926 4.49155 96.2483 4.49155C96.5707 4.49155 96.8362 4.59585 97.0448 4.80444C97.2534 5.01303 97.3577 5.27852 97.3577 5.60089V19.5102C97.3577 20.4773 97.6421 21.2738 98.211 21.8996C98.7799 22.5064 99.51 22.8098 100.401 22.8098H101.169C101.473 22.8098 101.719 22.9141 101.909 23.1227C102.098 23.3313 102.193 23.5967 102.193 23.9191C102.193 24.2415 102.079 24.507 101.852 24.7156C101.624 24.9052 101.34 25 100.999 25H100.401ZM93.3186 11.9156C93.0341 11.9156 92.7971 11.8302 92.6075 11.6596C92.4178 11.4699 92.323 11.2424 92.323 10.9769C92.323 10.6924 92.4178 10.4649 92.6075 10.2942C92.7971 10.1046 93.0341 10.0098 93.3186 10.0098H100.572C100.856 10.0098 101.093 10.1046 101.283 10.2942C101.473 10.4649 101.567 10.6924 101.567 10.9769C101.567 11.2424 101.473 11.4699 101.283 11.6596C101.093 11.8302 100.856 11.9156 100.572 11.9156H93.3186ZM112.415 25.1422C110.898 25.1422 109.542 24.8009 108.347 24.1182C107.152 23.4356 106.214 22.4969 105.531 21.3022C104.848 20.1076 104.507 18.7517 104.507 17.2347C104.507 15.6987 104.848 14.3333 105.531 13.1387C106.214 11.944 107.152 11.0053 108.347 10.3227C109.542 9.64 110.898 9.29866 112.415 9.29866C113.932 9.29866 115.278 9.64 116.454 10.3227C117.648 11.0053 118.587 11.944 119.27 13.1387C119.952 14.3333 120.303 15.6987 120.322 17.2347C120.322 18.7517 119.971 20.1076 119.27 21.3022C118.587 22.4969 117.648 23.4356 116.454 24.1182C115.278 24.8009 113.932 25.1422 112.415 25.1422ZM112.415 23.1511C113.514 23.1511 114.5 22.8951 115.373 22.3831C116.245 21.8711 116.928 21.1695 117.421 20.2782C117.914 19.387 118.16 18.3724 118.16 17.2347C118.16 16.0969 117.914 15.0824 117.421 14.1911C116.928 13.2809 116.245 12.5698 115.373 12.0578C114.5 11.5458 113.514 11.2898 112.415 11.2898C111.315 11.2898 110.329 11.5458 109.456 12.0578C108.584 12.5698 107.892 13.2809 107.38 14.1911C106.887 15.0824 106.64 16.0969 106.64 17.2347C106.64 18.3724 106.887 19.387 107.38 20.2782C107.892 21.1695 108.584 21.8711 109.456 22.3831C110.329 22.8951 111.315 23.1511 112.415 23.1511Z" fill="black"/>
<path fill-rule="evenodd" clip-rule="evenodd" d="M15.8464 2.96296H8.58307e-06L6.67216 9.63511H22.5185L15.8464 2.96296ZM6.67215 9.63512V25.4815L0 18.8093V2.96296L6.67215 9.63512Z" fill="#CCCCCC"/>
<path fill-rule="evenodd" clip-rule="evenodd" d="M6.67218 25.4815L22.5185 25.4815L15.8464 18.8093L2.28882e-05 18.8093L6.67218 25.4815ZM15.8464 18.8093L15.8464 2.96296L22.5186 9.63511L22.5186 25.4815L15.8464 18.8093Z" fill="black"/>
</svg>
