<svg width="42" height="42" viewBox="0 0 42 42" fill="none" xmlns="http://www.w3.org/2000/svg">
<rect width="42" height="42" rx="21" fill="url(#paint0_linear_1_390)"/>
<path d="M23.0001 11.0001H15.0001C14.4697 11.0001 13.961 11.2108 13.5859 11.5859C13.2108 11.961 13.0001 12.4697 13.0001 13.0001V29.0001C13.0001 29.5306 13.2108 30.0393 13.5859 30.4143C13.961 30.7894 14.4697 31.0001 15.0001 31.0001H27.0001C27.5306 31.0001 28.0393 30.7894 28.4143 30.4143C28.7894 30.0393 29.0001 29.5306 29.0001 29.0001V17.0001L23.0001 11.0001Z" stroke="white" stroke-linecap="round" stroke-linejoin="round"/>
<path d="M22.9999 11.0001V17.0001H28.9999" stroke="white" stroke-linecap="round" stroke-linejoin="round"/>
<path d="M24.9999 21.9999H16.9999" stroke="white" stroke-linecap="round" stroke-linejoin="round"/>
<path d="M24.9999 26.0001H16.9999" stroke="white" stroke-linecap="round" stroke-linejoin="round"/>
<path d="M18.9999 18H17.9999H16.9999" stroke="white" stroke-linecap="round" stroke-linejoin="round"/>
<defs>
<linearGradient id="paint0_linear_1_390" x1="21" y1="0" x2="21" y2="42" gradientUnits="userSpaceOnUse">
<stop stop-color="#0077B5"/>
<stop offset="1" stop-color="#0E6795"/>
</linearGradient>
</defs>
</svg>
