<svg width="59" height="12" viewBox="0 0 59 12" fill="none" xmlns="http://www.w3.org/2000/svg">
<path d="M0.26 11V1.2H1.982V9.432H7.134V11H0.26ZM8.75997 2.474V0.863999H10.58V2.474H8.75997ZM8.82997 11V3.608H10.524V11H8.82997ZM12.7378 11V3.608H14.4318V4.756C15.0198 3.888 15.7898 3.454 16.7418 3.454C17.5632 3.454 18.2072 3.71067 18.6738 4.224C19.1405 4.73733 19.3738 5.428 19.3738 6.296V11H17.6798V6.8C17.6798 6.22133 17.5398 5.778 17.2598 5.47C16.9892 5.15267 16.6018 4.994 16.0978 4.994C15.6032 4.994 15.2018 5.15733 14.8938 5.484C14.5858 5.81067 14.4318 6.25867 14.4318 6.828V11H12.7378ZM21.4195 11V0.78H23.1135V6.884L26.1795 3.608H28.2375L25.2975 6.618L28.3355 11H26.3755L24.1495 7.808L23.1135 8.886V11H21.4195ZM32.6004 11.168C31.5178 11.168 30.6124 10.8087 29.8844 10.09C29.1658 9.37133 28.8064 8.44267 28.8064 7.304C28.8064 6.23067 29.1471 5.32067 29.8284 4.574C30.5098 3.82733 31.3731 3.454 32.4184 3.454C33.5384 3.454 34.4064 3.83667 35.0224 4.602C35.6478 5.358 35.9604 6.30067 35.9604 7.43C35.9604 7.63533 35.9511 7.794 35.9324 7.906H30.5004C30.5938 8.494 30.8318 8.956 31.2144 9.292C31.5971 9.61867 32.0684 9.782 32.6284 9.782C33.3564 9.782 34.0238 9.488 34.6304 8.9L35.6244 9.782C34.8591 10.706 33.8511 11.168 32.6004 11.168ZM30.4864 6.786H34.2804C34.2244 6.21667 34.0331 5.75 33.7064 5.386C33.3798 5.022 32.9458 4.84 32.4044 4.84C31.8911 4.84 31.4618 5.022 31.1164 5.386C30.7711 5.74067 30.5611 6.20733 30.4864 6.786ZM40.7137 11.154C39.7897 11.154 38.987 10.8087 38.3057 10.118C37.6243 9.418 37.2837 8.47533 37.2837 7.29C37.2837 6.114 37.6197 5.18067 38.2917 4.49C38.973 3.79933 39.7803 3.454 40.7137 3.454C41.7217 3.454 42.5617 3.888 43.2337 4.756V0.78H44.9277V11H43.2337V9.768C42.5803 10.692 41.7403 11.154 40.7137 11.154ZM39.6077 9.026C40.0277 9.46467 40.5317 9.684 41.1197 9.684C41.7077 9.684 42.2117 9.46 42.6317 9.012C43.0517 8.564 43.2617 7.99 43.2617 7.29C43.2617 6.59933 43.0517 6.03467 42.6317 5.596C42.2117 5.148 41.7077 4.924 41.1197 4.924C40.5223 4.924 40.0183 5.14333 39.6077 5.582C39.197 6.01133 38.9917 6.59 38.9917 7.318C38.9917 8.018 39.197 8.58733 39.6077 9.026Z" fill="#181818"/>
<path d="M47.3346 11V1.2H49.0566V11H47.3346ZM51.4839 11V3.608H53.1779V4.756C53.7659 3.888 54.5359 3.454 55.4879 3.454C56.3093 3.454 56.9533 3.71067 57.4199 4.224C57.8866 4.73733 58.1199 5.428 58.1199 6.296V11H56.4259V6.8C56.4259 6.22133 56.2859 5.778 56.0059 5.47C55.7353 5.15267 55.3479 4.994 54.8439 4.994C54.3493 4.994 53.9479 5.15733 53.6399 5.484C53.3319 5.81067 53.1779 6.25867 53.1779 6.828V11H51.4839Z" fill="#0275B1"/>
</svg>
